<svg xmlns="http://www.w3.org/2000/svg" xmlns:xlink="http://www.w3.org/1999/xlink" viewBox="0 0 263 249" preserveAspectRatio="xMidYMid" style="display: block; shape-rendering: auto; background: transparent;" width="263" height="249"><style type="text/css">
  .ld-text text {
    text-anchor: middle;
    dominant-baseline: middle;
    font-size: 81px;
    opacity: 0;
    user-select: none;
    pointer-events: none;
  }
</style>
<g style="transform-origin:131.5px 124.5px;transform:scale(1)" class="ld-text">
<g transform="translate(131.5,124.5)">
  <g transform="scale(1.0125) translate(0,0)"><g class="path" style="opacity: 1; transform-origin: -73.4px 16.77px; transform: matrix3d(1, 0, 0, 0, 0, 1, 0, 0, 0, 0, 1, 0, 0, 0, 0, 1); animation: 1.16279s linear -0.613953s infinite normal forwards running animate-mt3006hh2p; transform-box: view-box;"><path d="M19.84 30.38L23.68 45.18L24.64 45.18L28.64 31.42L37.04-0.50L46.72 0.94L37.20 32.70L30.96 54.54L16.16 55.58L10.48 34.22L1.20 1.50L12.56-0.50L19.84 30.38" style="fill: rgb(255, 72, 0);" transform="translate(-97.360,-27.592)"></path></g><g class="path" style="opacity: 1; transform-origin: -37.36px 16.47px; transform: matrix3d(1, 0, 0, 0, 0, 1, 0, 0, 0, 0, 1, 0, 0, 0, 0, 1); animation: 1.16279s linear -0.460465s infinite normal forwards running animate-mt3006hh2p; transform-box: view-box;"><path d="M54.32 1.58L65.68-0.42L64.56 34.38L65.52 55.18L54.32 55.18L55.28 35.74L54.32 1.58" style="fill: rgb(255, 72, 0);" transform="translate(-97.360,-27.592)"></path></g><g class="path" style="opacity: 1; transform-origin: 1.2px 17.17px; transform: matrix3d(1, 0, 0, 0, 0, 1, 0, 0, 0, 0, 1, 0, 0, 0, 0, 1); animation: 1.16279s linear -0.306977s infinite normal forwards running animate-mt3006hh2p; transform-box: view-box;"><path d="M78.48 1.58L89.84-0.42L88.96 25.66L109.36-0.26L117.52 5.18L99.12 26.54L118.64 49.66L108.40 56.06L88.88 28.46L88.72 34.38L89.68 55.18L78.48 55.18L79.44 35.74L78.48 1.58" style="fill: rgb(255, 72, 0);" transform="translate(-97.360,-27.592)"></path></g><g class="path" style="opacity: 1; transform-origin: 42.44px 16.55px; transform: matrix3d(1, 0, 0, 0, 0, 1, 0, 0, 0, 0, 1, 0, 0, 0, 0, 1); animation: 1.16279s linear -0.153488s infinite normal forwards running animate-mt3006hh2p; transform-box: view-box;"><path d="M154 55.18L124.72 55.18L125.68 35.74L124.72-0.02L154.72-0.02L153.84 8.54L135.84 8.54L135.36 22.70L151.36 22.70L150.48 31.18L135.04 31.18L134.96 34.38L135.52 46.70L154.88 46.70L154 55.18" style="fill: rgb(255, 72, 0);" transform="translate(-97.360,-27.592)"></path></g><g class="path" style="opacity: 1; transform-origin: 79.96px 17.09px; transform: matrix3d(1, 0, 0, 0, 0, 1, 0, 0, 0, 0, 1, 0, 0, 0, 0, 1); animation: 1.16279s linear 0s infinite normal forwards running animate-mt3006hh2p; transform-box: view-box;"><path d="M158.72 47.90L164.96 39.26Q171.76 46.06 178.56 46.06L178.56 46.06Q182.08 46.06 184.20 44.42Q186.32 42.78 186.32 40.18Q186.32 37.58 183.76 35.78Q181.20 33.98 177.56 32.62Q173.92 31.26 170.32 29.54Q166.72 27.82 164.16 24.62Q161.60 21.42 161.60 16.86L161.60 16.86Q161.60 9.66 167.60 4.42Q173.60-0.82 181.84-0.82L181.84-0.82Q185.60-0.82 189.12-0.02Q192.64 0.78 195.92 2.30L195.92 2.30L190.48 13.98Q188.24 12.22 184.36 10.74Q180.48 9.26 177.56 9.26Q174.64 9.26 172.84 10.66Q171.04 12.06 171.04 14.38Q171.04 16.70 173.60 18.50Q176.16 20.30 179.80 21.66Q183.44 23.02 187.08 24.66Q190.72 26.30 193.28 29.50Q195.84 32.70 195.84 37.26L195.84 37.26Q195.84 44.78 189.84 50.42Q183.84 56.06 175.84 56.06L175.84 56.06Q169.84 56.06 165.20 53.18L165.20 53.18Q161.12 50.70 159.44 48.78L159.44 48.78L158.72 47.90" style="fill: rgb(255, 72, 0);" transform="translate(-97.360,-27.592)"></path></g></g><text dy="0.35em" fill="#ff4800" font-family="Acme" font-size="81">VIKES</text>
</g>
</g><style type="text/css">@keyframes animate-mt3006hh2p { 0.00% {transform: translate(0.00px,0.00px) rotate(0.00deg) scale(1.00, 1.00) skew(0deg, 0.00deg) ;opacity: 1.00;}2.00% {animation-timing-function: cubic-bezier(0.20,0.39,0.50,0.97);transform: translate(0.00px,-1.08px) rotate(0.00deg) ;}36.00% {animation-timing-function: cubic-bezier(0.50,0.03,0.80,0.61);transform: translate(0.00px,-10.00px) rotate(0.00deg) ;}72.00% {transform: translate(0.00px,-0.12px) rotate(0.00deg) ;}74.00% {animation-timing-function: cubic-bezier(0.24,0.43,0.48,0.91);transform: translate(0.00px,0.00px) rotate(0.00deg) scale(1.00, 0.95) ;}86.00% {animation-timing-function: cubic-bezier(0.53,0.08,0.77,0.57);transform: translate(0.00px,0.00px) rotate(0.00deg) scale(1.00, 0.80) ;}100.00% {animation-timing-function: cubic-bezier(0.53,0.08,0.77,0.57);transform: translate(0.00px,0.00px) rotate(0.00deg) scale(1.00, 1.00) ;} }</style><!-- [ldio] generated by https://loading.io --></svg>